<svg width="1281" height="162" viewBox="0 0 1281 162" fill="none" xmlns="http://www.w3.org/2000/svg">
<path d="M1258.76 136.308C1255.19 136.308 1251.88 135.415 1248.84 133.629C1245.79 131.844 1243.32 129.428 1241.43 126.382C1239.65 123.337 1238.75 119.976 1238.75 116.3V77.2299H1229.14V55.1742H1240.17L1249.62 33.9062H1264.27V55.1742H1278.93V70.9282L1273.25 77.2299H1264.27V108.423C1264.27 109.683 1264.59 110.628 1265.22 111.259C1265.85 111.889 1266.74 112.204 1267.9 112.204H1280.03V136.308H1258.76Z" fill="#F2F4F7"/>
<path d="M1163.68 136.305V114.25H1193.61C1194.77 114.25 1195.61 113.987 1196.13 113.462C1196.76 112.832 1197.08 112.044 1197.08 111.099V110.153C1197.08 109.208 1196.76 108.473 1196.13 107.948C1195.61 107.423 1194.66 106.95 1193.3 106.53L1179.28 102.276C1175.81 101.121 1172.92 99.8083 1170.61 98.338C1168.41 96.7625 1166.67 94.8195 1165.41 92.509C1164.26 90.0933 1163.68 87.2576 1163.68 84.0018V75.1795C1163.68 71.5036 1164.57 68.1427 1166.36 65.0969C1168.25 62.0511 1170.72 59.6355 1173.76 57.8501C1176.81 56.0646 1180.12 55.1719 1183.69 55.1719H1220.39V70.9259L1214.72 77.2275H1193.14C1191.98 77.2275 1191.09 77.4901 1190.46 78.0152C1189.94 78.4353 1189.67 79.118 1189.67 80.0633V80.851C1189.67 81.6912 1189.99 82.4264 1190.62 83.0565C1191.25 83.6867 1192.19 84.1593 1193.45 84.4744L1207.63 88.8855C1211.1 89.9358 1213.94 91.2486 1216.14 92.824C1218.45 94.2944 1220.18 96.1849 1221.34 98.4955C1222.49 100.806 1223.07 103.589 1223.07 106.845V116.298C1223.07 119.974 1222.18 123.334 1220.39 126.38C1218.61 129.426 1216.19 131.842 1213.15 133.627C1210.1 135.412 1206.74 136.305 1203.06 136.305H1163.68Z" fill="#F2F4F7"/>
<path d="M1107.41 136.31C1103.73 136.31 1100.37 135.418 1097.32 133.632C1094.28 131.847 1091.86 129.431 1090.08 126.385C1088.29 123.339 1087.4 119.979 1087.4 116.303V73.6092C1087.4 69.9333 1088.29 66.5724 1090.08 63.5266C1091.86 60.4808 1094.28 58.0652 1097.32 56.2797C1100.37 54.4943 1103.73 53.6016 1107.41 53.6016H1132.3C1135.87 53.6016 1139.18 54.4943 1142.22 56.2797C1145.27 58.0652 1147.68 60.4808 1149.47 63.5266C1151.36 66.5724 1152.31 69.9333 1152.31 73.6092V104.802H1112.92V111.576C1112.92 112.837 1113.24 113.782 1113.87 114.412C1114.5 115.042 1115.39 115.357 1116.54 115.357H1148.52V136.31H1107.41ZM1112.29 87.7878H1127.26V78.0203C1127.26 76.76 1126.94 75.8673 1126.31 75.3421C1125.79 74.712 1124.89 74.3969 1123.63 74.3969H1116.07C1114.81 74.3969 1113.87 74.712 1113.24 75.3421C1112.6 75.8673 1112.29 76.76 1112.29 78.0203V87.7878Z" fill="#F2F4F7"/>
<path d="M1035.13 45.2498C1035.13 41.5739 1036.02 38.213 1037.8 35.1672C1039.59 32.1215 1042.01 29.7058 1045.05 27.9204C1048.1 26.1349 1051.46 25.2422 1055.13 25.2422H1084.28V47.2979H1064.27C1063.12 47.2979 1062.22 47.6129 1061.59 48.2431C1060.96 48.7682 1060.65 49.661 1060.65 50.9213V63.0519H1077.98V78.4909L1074.98 85.1076H1060.65V136.308H1035.13V45.2498Z" fill="#F2F4F7"/>
<path d="M976.34 136.31V55.177H992.409L996.032 63.8417H996.82C998.08 61.216 1000.08 58.8529 1002.81 56.7524C1005.54 54.6518 1008.69 53.6016 1012.26 53.6016H1024.86V79.2807H1006.27C1005.22 79.2807 1004.38 79.4907 1003.75 79.9108C1003.12 80.2259 1002.65 80.6985 1002.33 81.3287C1002.02 81.9588 1001.86 82.7991 1001.86 83.8493V136.31H976.34Z" fill="#F2F4F7"/>
<path d="M918.172 136.31C914.496 136.31 911.135 135.418 908.089 133.632C905.043 131.847 902.628 129.431 900.842 126.385C899.057 123.339 898.164 119.979 898.164 116.303V73.6092C898.164 69.9333 899.057 66.5724 900.842 63.5266C902.628 60.4808 905.043 58.0652 908.089 56.2797C911.135 54.4943 914.496 53.6016 918.172 53.6016H943.063C946.634 53.6016 949.942 54.4943 952.988 56.2797C956.034 58.0652 958.45 60.4808 960.235 63.5266C962.125 66.5724 963.071 69.9333 963.071 73.6092V104.802H923.686V111.576C923.686 112.837 924.001 113.782 924.631 114.412C925.261 115.042 926.154 115.357 927.309 115.357H959.29V136.31H918.172ZM923.055 87.7878H938.022V78.0203C938.022 76.76 937.707 75.8673 937.077 75.3421C936.551 74.712 935.659 74.3969 934.398 74.3969H926.836C925.576 74.3969 924.631 74.712 924.001 75.3421C923.37 75.8673 923.055 76.76 923.055 78.0203V87.7878Z" fill="#F2F4F7"/>
<path d="M819.895 136.303V26.8125H845.416V63.5194H846.204C847.359 60.9988 849.25 58.7407 851.875 56.7452C854.606 54.6446 857.757 53.5944 861.328 53.5944H866.054C869.73 53.5944 873.038 54.4346 875.979 56.115C878.92 57.7955 881.23 60.1586 882.911 63.2043C884.696 66.1451 885.589 69.4009 885.589 72.9718V116.295C885.589 119.971 884.644 123.332 882.753 126.378C880.968 129.424 878.552 131.839 875.506 133.625C872.461 135.41 869.152 136.303 865.581 136.303H819.895ZM856.917 112.672C858.177 112.672 859.07 112.357 859.595 111.727C860.225 111.097 860.54 110.204 860.54 109.049V80.8489C860.54 79.5885 860.225 78.6958 859.595 78.1707C859.07 77.5405 858.177 77.2254 856.917 77.2254H850.93C849.46 77.2254 848.304 77.4355 847.464 77.8556C846.624 78.2757 845.941 78.9584 845.416 79.9036C844.996 80.7438 844.786 81.8466 844.786 83.212V112.672H856.917Z" fill="#F2F4F7"/>
<path d="M760.016 137.886C756.34 137.886 752.98 136.993 749.934 135.208C746.888 133.422 744.472 131.006 742.687 127.961C740.902 124.915 740.009 121.554 740.009 117.878V73.6092C740.009 69.9333 740.902 66.5724 742.687 63.5266C744.472 60.4808 746.888 58.0652 749.934 56.2797C752.98 54.4943 756.34 53.6016 760.016 53.6016H785.696C789.266 53.6016 792.575 54.4943 795.621 56.2797C798.666 58.0652 801.082 60.4808 802.867 63.5266C804.758 66.5724 805.703 69.9333 805.703 73.6092V117.878C805.703 121.554 804.758 124.915 802.867 127.961C801.082 131.006 798.666 133.422 795.621 135.208C792.575 136.993 789.266 137.886 785.696 137.886H760.016ZM777.031 114.255C778.291 114.255 779.184 113.94 779.709 113.309C780.339 112.679 780.654 111.786 780.654 110.631V80.8561C780.654 79.5957 780.339 78.703 779.709 78.1779C779.184 77.5477 778.291 77.2326 777.031 77.2326H768.681C767.421 77.2326 766.476 77.5477 765.845 78.1779C765.215 78.703 764.9 79.5957 764.9 80.8561V110.631C764.9 111.786 765.215 112.679 765.845 113.309C766.476 113.94 767.421 114.255 768.681 114.255H777.031Z" fill="#F2F4F7"/>
<path d="M709.215 136.308C705.644 136.308 702.336 135.415 699.29 133.629C696.244 131.844 693.776 129.428 691.886 126.382C690.1 123.337 689.208 119.976 689.208 116.3V77.2299H679.598V55.1742H690.625L700.078 33.9062H714.729V55.1742H729.38V70.9282L723.709 77.2299H714.729V108.423C714.729 109.683 715.044 110.628 715.674 111.259C716.305 111.889 717.197 112.204 718.353 112.204H730.483V136.308H709.215Z" fill="#F2F4F7"/>
<path d="M607.892 136.303V26.8125H633.413V83.9997H639.4L650.112 55.1698H673.271V66.9853L660.983 94.87L674.374 124.488V136.303H650.428L639.4 107.158H633.413V136.303H607.892Z" fill="#F2F4F7"/>
<path d="M560.169 136.305C556.493 136.305 553.132 135.412 550.086 133.627C547.04 131.842 544.625 129.426 542.839 126.38C541.054 123.334 540.161 119.974 540.161 116.298V75.1795C540.161 71.5036 541.054 68.1427 542.839 65.0969C544.625 62.0511 547.04 59.6355 550.086 57.8501C553.132 56.0646 556.493 55.1719 560.169 55.1719H595.3V73.6041L590.101 79.2756H569.306C568.151 79.2756 567.258 79.5906 566.628 80.2208C565.998 80.851 565.683 81.7962 565.683 83.0565V108.421C565.683 109.681 565.998 110.626 566.628 111.256C567.258 111.886 568.151 112.202 569.306 112.202H595.3V136.305H560.169Z" fill="#F2F4F7"/>
<path d="M481.956 137.881C478.28 137.881 474.972 137.04 472.031 135.36C469.09 133.68 466.727 131.369 464.942 128.428C463.261 125.382 462.421 122.074 462.421 118.503V106.057C462.421 102.487 463.261 99.2307 464.942 96.2899C466.727 93.2441 469.09 90.881 472.031 89.2006C474.972 87.5202 478.28 86.68 481.956 86.68H501.333V79.5906C501.333 78.3303 501.018 77.4376 500.388 76.9125C499.863 76.2823 498.97 75.9672 497.71 75.9672H469.51V55.1719H507.32C510.996 55.1719 514.304 56.0121 517.245 57.6925C520.186 59.373 522.496 61.7361 524.177 64.7818C525.962 67.7226 526.855 70.9784 526.855 74.5494V136.305H510.786L507.162 127.64H506.375C505.114 130.266 503.066 132.629 500.231 134.73C497.5 136.83 494.349 137.881 490.778 137.881H481.956ZM495.819 117.4C497.08 117.4 498.13 117.19 498.97 116.77C499.916 116.245 500.598 115.562 501.018 114.722C501.543 113.777 501.806 112.674 501.806 111.414V103.694H490.621C489.36 103.694 488.415 104.009 487.785 104.64C487.155 105.27 486.84 106.215 486.84 107.475V113.777C486.84 114.932 487.155 115.825 487.785 116.455C488.415 117.085 489.36 117.4 490.621 117.4H495.819Z" fill="#F2F4F7"/>
<path d="M382.379 136.31V26.0312H408.688V68.5672H422.552V26.0312H448.861V136.31H422.552V92.9859H408.688V136.31H382.379Z" fill="#F2F4F7"/>
<rect x="171.059" y="150.484" width="10.6894" height="10.6894" fill="#5A5AB5"/>
<rect x="181.749" y="150.484" width="10.6894" height="10.6894" fill="#5A5AB5"/>
<rect x="181.749" y="139.789" width="10.6894" height="10.6894" fill="#A0A0FF"/>
<rect x="192.438" y="129.102" width="10.6894" height="10.6894" fill="#5A5AB5"/>
<rect x="192.438" y="118.414" width="10.6894" height="10.6894" fill="#A0A0FF"/>
<rect width="10.6894" height="10.6894" transform="matrix(1 0 0 -1 171.059 11.5234)" fill="#5A5AB5"/>
<rect width="10.6894" height="10.6894" transform="matrix(1 0 0 -1 181.749 11.5234)" fill="#5A5AB5"/>
<rect width="10.6894" height="10.6894" transform="matrix(1 0 0 -1 181.749 22.2031)" fill="#A0A0FF"/>
<rect width="10.6894" height="10.6894" transform="matrix(1 0 0 -1 192.438 32.8984)" fill="#5A5AB5"/>
<rect width="10.6894" height="10.6894" transform="matrix(1 0 0 -1 192.438 43.5859)" fill="#A0A0FF"/>
<rect width="10.6894" height="10.6894" transform="matrix(-1 0 0 1 160.37 150.484)" fill="#5A5AB5"/>
<rect width="10.6894" height="10.6894" transform="matrix(-1 0 0 1 149.68 150.484)" fill="#5A5AB5"/>
<rect width="10.6894" height="10.6894" transform="matrix(-1 0 0 1 149.68 139.789)" fill="#A0A0FF"/>
<rect width="10.6894" height="10.6894" transform="matrix(-1 0 0 1 138.991 129.102)" fill="#5A5AB5"/>
<rect width="10.6894" height="10.6894" transform="matrix(-1 0 0 1 138.991 118.414)" fill="#A0A0FF"/>
<rect x="160.37" y="11.5234" width="10.6894" height="10.6894" transform="rotate(180 160.37 11.5234)" fill="#5A5AB5"/>
<rect x="149.68" y="11.5234" width="10.6894" height="10.6894" transform="rotate(180 149.68 11.5234)" fill="#5A5AB5"/>
<rect x="149.68" y="22.2031" width="10.6894" height="10.6894" transform="rotate(180 149.68 22.2031)" fill="#A0A0FF"/>
<rect x="138.991" y="32.8984" width="10.6894" height="10.6894" transform="rotate(180 138.991 32.8984)" fill="#5A5AB5"/>
<rect x="138.991" y="43.5859" width="10.6894" height="10.6894" transform="rotate(180 138.991 43.5859)" fill="#A0A0FF"/>
<rect x="192.438" y="0.828125" width="10.6894" height="10.6894" fill="#A0A0FF"/>
<rect x="203.127" y="11.5234" width="10.6894" height="10.6894" fill="#5A5AB5"/>
<rect x="213.816" y="11.5234" width="10.6894" height="10.6894" fill="#A0A0FF"/>
<rect x="224.506" y="22.2031" width="10.6894" height="10.6894" fill="#A0A0FF"/>
<rect x="235.196" y="32.8984" width="10.6894" height="10.6894" fill="#A0A0FF"/>
<rect x="245.885" y="43.5859" width="10.6894" height="10.6894" fill="#A0A0FF"/>
<rect x="245.885" y="54.2812" width="10.6894" height="10.6894" fill="#A0A0FF"/>
<rect x="256.573" y="64.9609" width="10.6894" height="10.6894" fill="#A0A0FF"/>
<rect width="10.6894" height="10.6894" transform="matrix(1 0 0 -1 192.438 161.164)" fill="#A0A0FF"/>
<rect width="10.6894" height="10.6894" transform="matrix(1 0 0 -1 203.127 150.484)" fill="#5A5AB5"/>
<rect width="10.6894" height="10.6894" transform="matrix(1 0 0 -1 213.816 150.484)" fill="#A0A0FF"/>
<rect width="10.6894" height="10.6894" transform="matrix(1 0 0 -1 224.506 139.789)" fill="#A0A0FF"/>
<rect width="10.6894" height="10.6894" transform="matrix(1 0 0 -1 235.196 129.102)" fill="#A0A0FF"/>
<rect width="10.6894" height="10.6894" transform="matrix(1 0 0 -1 245.885 118.414)" fill="#A0A0FF"/>
<rect width="10.6894" height="10.6894" transform="matrix(1 0 0 -1 245.885 107.719)" fill="#A0A0FF"/>
<rect width="10.6894" height="10.6894" transform="matrix(1 0 0 -1 256.573 97.0312)" fill="#A0A0FF"/>
<rect width="10.6894" height="10.6894" transform="matrix(-1 0 0 1 138.991 0.828125)" fill="#A0A0FF"/>
<rect width="10.6894" height="10.6894" transform="matrix(-1 0 0 1 128.302 11.5234)" fill="#5A5AB5"/>
<rect width="10.6894" height="10.6894" transform="matrix(-1 0 0 1 117.611 11.5234)" fill="#A0A0FF"/>
<rect width="10.6894" height="10.6894" transform="matrix(-1 0 0 1 106.923 22.2031)" fill="#A0A0FF"/>
<rect width="10.6894" height="10.6894" transform="matrix(-1 0 0 1 96.2324 32.8984)" fill="#A0A0FF"/>
<rect width="10.6894" height="10.6894" transform="matrix(-1 0 0 1 85.5439 43.5859)" fill="#A0A0FF"/>
<rect width="10.6894" height="10.6894" transform="matrix(-1 0 0 1 85.5439 54.2812)" fill="#A0A0FF"/>
<rect width="10.6894" height="10.6894" transform="matrix(-1 0 0 1 74.8545 64.9609)" fill="#A0A0FF"/>
<rect x="138.991" y="161.164" width="10.6894" height="10.6894" transform="rotate(180 138.991 161.164)" fill="#A0A0FF"/>
<rect x="128.302" y="150.484" width="10.6894" height="10.6894" transform="rotate(180 128.302 150.484)" fill="#5A5AB5"/>
<rect x="117.611" y="150.484" width="10.6894" height="10.6894" transform="rotate(180 117.611 150.484)" fill="#A0A0FF"/>
<rect x="106.923" y="139.789" width="10.6894" height="10.6894" transform="rotate(180 106.923 139.789)" fill="#A0A0FF"/>
<rect x="96.2324" y="129.102" width="10.6894" height="10.6894" transform="rotate(180 96.2324 129.102)" fill="#A0A0FF"/>
<rect x="85.5439" y="118.414" width="10.6894" height="10.6894" transform="rotate(180 85.5439 118.414)" fill="#A0A0FF"/>
<rect x="85.5439" y="107.719" width="10.6894" height="10.6894" transform="rotate(180 85.5439 107.719)" fill="#A0A0FF"/>
<rect x="74.8545" y="97.0312" width="10.6894" height="10.6894" transform="rotate(180 74.8545 97.0312)" fill="#A0A0FF"/>
<rect x="213.816" y="0.828125" width="10.6894" height="10.6894" fill="#5A5AB5"/>
<rect x="224.506" y="11.5234" width="10.6894" height="10.6894" fill="#5A5AB5"/>
<rect x="224.506" y="0.828125" width="10.6894" height="10.6894" fill="#A0A0FF"/>
<rect x="235.196" y="11.5234" width="10.6894" height="10.6894" fill="#A0A0FF"/>
<rect x="245.885" y="22.2031" width="10.6894" height="10.6894" fill="#A0A0FF"/>
<rect x="245.885" y="11.5234" width="10.6894" height="10.6894" fill="#5A5AB5"/>
<rect x="256.573" y="22.2031" width="10.6894" height="10.6894" fill="#5A5AB5"/>
<rect x="267.264" y="32.8984" width="10.6894" height="10.6894" fill="#A0A0FF"/>
<rect x="277.953" y="43.5859" width="10.6894" height="10.6894" fill="#A0A0FF"/>
<rect x="288.642" y="54.2812" width="10.6894" height="10.6894" fill="#A0A0FF"/>
<rect x="288.642" y="64.9609" width="10.6894" height="10.6894" fill="#5A5AB5"/>
<rect x="203.127" y="0.828125" width="10.6894" height="10.6894" fill="#5A5AB5"/>
<rect width="10.6894" height="10.6894" transform="matrix(1 0 0 -1 213.816 161.164)" fill="#5A5AB5"/>
<rect width="10.6894" height="10.6894" transform="matrix(1 0 0 -1 203.127 161.164)" fill="#5A5AB5"/>
<rect width="10.6894" height="10.6894" transform="matrix(1 0 0 -1 224.506 150.484)" fill="#5A5AB5"/>
<rect width="10.6894" height="10.6894" transform="matrix(1 0 0 -1 224.506 161.164)" fill="#A0A0FF"/>
<rect width="10.6894" height="10.6894" transform="matrix(1 0 0 -1 235.196 150.484)" fill="#A0A0FF"/>
<rect width="10.6894" height="10.6894" transform="matrix(1 0 0 -1 245.885 139.789)" fill="#A0A0FF"/>
<rect width="10.6894" height="10.6894" transform="matrix(1 0 0 -1 245.885 150.484)" fill="#5A5AB5"/>
<rect width="10.6894" height="10.6894" transform="matrix(1 0 0 -1 256.573 139.789)" fill="#5A5AB5"/>
<rect width="10.6894" height="10.6894" transform="matrix(1 0 0 -1 267.264 129.102)" fill="#A0A0FF"/>
<rect width="10.6894" height="10.6894" transform="matrix(1 0 0 -1 277.953 118.414)" fill="#A0A0FF"/>
<rect width="10.6894" height="10.6894" transform="matrix(1 0 0 -1 288.642 107.719)" fill="#A0A0FF"/>
<rect width="10.6894" height="10.6894" transform="matrix(1 0 0 -1 288.642 97.0312)" fill="#5A5AB5"/>
<rect width="10.6894" height="10.6894" transform="matrix(-1 0 0 1 117.611 0.828125)" fill="#5A5AB5"/>
<rect width="10.6894" height="10.6894" transform="matrix(-1 0 0 1 106.923 11.5234)" fill="#5A5AB5"/>
<rect width="10.6894" height="10.6894" transform="matrix(-1 0 0 1 106.923 0.828125)" fill="#A0A0FF"/>
<rect width="10.6894" height="10.6894" transform="matrix(-1 0 0 1 96.2324 11.5234)" fill="#A0A0FF"/>
<rect width="10.6894" height="10.6894" transform="matrix(-1 0 0 1 85.5439 22.2031)" fill="#A0A0FF"/>
<rect width="10.6894" height="10.6894" transform="matrix(-1 0 0 1 85.5439 11.5234)" fill="#5A5AB5"/>
<rect width="10.6894" height="10.6894" transform="matrix(-1 0 0 1 74.8545 22.2031)" fill="#5A5AB5"/>
<rect width="10.6894" height="10.6894" transform="matrix(-1 0 0 1 64.165 32.8984)" fill="#A0A0FF"/>
<rect width="10.6894" height="10.6894" transform="matrix(-1 0 0 1 53.4756 43.5859)" fill="#A0A0FF"/>
<rect width="10.6894" height="10.6894" transform="matrix(-1 0 0 1 42.7871 54.2812)" fill="#A0A0FF"/>
<rect width="10.6894" height="10.6894" transform="matrix(-1 0 0 1 42.7871 64.9609)" fill="#5A5AB5"/>
<rect width="10.6894" height="10.6894" transform="matrix(-1 0 0 1 128.302 0.828125)" fill="#5A5AB5"/>
<rect x="117.611" y="161.164" width="10.6894" height="10.6894" transform="rotate(180 117.611 161.164)" fill="#5A5AB5"/>
<rect x="128.302" y="161.164" width="10.6894" height="10.6894" transform="rotate(180 128.302 161.164)" fill="#5A5AB5"/>
<rect x="106.923" y="150.484" width="10.6894" height="10.6894" transform="rotate(180 106.923 150.484)" fill="#5A5AB5"/>
<rect x="106.923" y="161.164" width="10.6894" height="10.6894" transform="rotate(180 106.923 161.164)" fill="#A0A0FF"/>
<rect x="96.2324" y="150.484" width="10.6894" height="10.6894" transform="rotate(180 96.2324 150.484)" fill="#A0A0FF"/>
<rect x="85.5439" y="139.789" width="10.6894" height="10.6894" transform="rotate(180 85.5439 139.789)" fill="#A0A0FF"/>
<rect x="85.5439" y="150.484" width="10.6894" height="10.6894" transform="rotate(180 85.5439 150.484)" fill="#5A5AB5"/>
<rect x="74.8545" y="139.789" width="10.6894" height="10.6894" transform="rotate(180 74.8545 139.789)" fill="#5A5AB5"/>
<rect x="64.165" y="129.102" width="10.6894" height="10.6894" transform="rotate(180 64.165 129.102)" fill="#A0A0FF"/>
<rect x="53.4756" y="118.414" width="10.6894" height="10.6894" transform="rotate(180 53.4756 118.414)" fill="#A0A0FF"/>
<rect x="42.7871" y="107.719" width="10.6894" height="10.6894" transform="rotate(180 42.7871 107.719)" fill="#A0A0FF"/>
<rect x="42.7871" y="97.0312" width="10.6894" height="10.6894" transform="rotate(180 42.7871 97.0312)" fill="#5A5AB5"/>
<rect x="256.573" y="11.5234" width="10.6894" height="10.6894" fill="#A0A0FF"/>
<rect x="267.264" y="11.5234" width="10.6894" height="10.6894" fill="#A0A0FF"/>
<rect x="267.264" y="22.2031" width="10.6894" height="10.6894" fill="#5A5AB5"/>
<rect x="277.953" y="22.2031" width="10.6894" height="10.6894" fill="#A0A0FF"/>
<rect x="288.642" y="22.2031" width="10.6894" height="10.6894" fill="#A0A0FF"/>
<rect x="288.642" y="32.8984" width="10.6894" height="10.6894" fill="#5A5AB5"/>
<rect x="299.332" y="32.8984" width="10.6894" height="10.6894" fill="#A0A0FF"/>
<rect x="299.332" y="43.5859" width="10.6894" height="10.6894" fill="#5A5AB5"/>
<rect x="310.021" y="43.5859" width="10.6894" height="10.6894" fill="#A0A0FF"/>
<rect x="320.711" y="54.2812" width="10.6894" height="10.6894" fill="#A0A0FF"/>
<rect x="320.711" y="64.9609" width="10.6894" height="10.6894" fill="#A0A0FF"/>
<rect width="10.6894" height="10.6894" transform="matrix(1 0 0 -1 256.573 150.484)" fill="#A0A0FF"/>
<rect width="10.6894" height="10.6894" transform="matrix(1 0 0 -1 267.264 150.484)" fill="#A0A0FF"/>
<rect width="10.6894" height="10.6894" transform="matrix(1 0 0 -1 267.264 139.789)" fill="#5A5AB5"/>
<rect width="10.6894" height="10.6894" transform="matrix(1 0 0 -1 277.953 139.789)" fill="#A0A0FF"/>
<rect width="10.6894" height="10.6894" transform="matrix(1 0 0 -1 288.642 139.789)" fill="#A0A0FF"/>
<rect width="10.6894" height="10.6894" transform="matrix(1 0 0 -1 288.642 129.102)" fill="#5A5AB5"/>
<rect width="10.6894" height="10.6894" transform="matrix(1 0 0 -1 299.332 129.102)" fill="#A0A0FF"/>
<rect width="10.6894" height="10.6894" transform="matrix(1 0 0 -1 299.332 118.414)" fill="#5A5AB5"/>
<rect width="10.6894" height="10.6894" transform="matrix(1 0 0 -1 310.021 118.414)" fill="#A0A0FF"/>
<rect width="10.6894" height="10.6894" transform="matrix(1 0 0 -1 320.711 107.719)" fill="#A0A0FF"/>
<rect width="10.6894" height="10.6894" transform="matrix(1 0 0 -1 320.711 97.0312)" fill="#A0A0FF"/>
<rect width="10.6894" height="10.6894" transform="matrix(-1 0 0 1 74.8545 11.5234)" fill="#A0A0FF"/>
<rect width="10.6894" height="10.6894" transform="matrix(-1 0 0 1 64.165 11.5234)" fill="#A0A0FF"/>
<rect width="10.6894" height="10.6894" transform="matrix(-1 0 0 1 64.165 22.2031)" fill="#5A5AB5"/>
<rect width="10.6894" height="10.6894" transform="matrix(-1 0 0 1 53.4756 22.2031)" fill="#A0A0FF"/>
<rect width="10.6894" height="10.6894" transform="matrix(-1 0 0 1 42.7871 22.2031)" fill="#A0A0FF"/>
<rect width="10.6894" height="10.6894" transform="matrix(-1 0 0 1 42.7871 32.8984)" fill="#5A5AB5"/>
<rect width="10.6894" height="10.6894" transform="matrix(-1 0 0 1 32.0967 32.8984)" fill="#A0A0FF"/>
<rect width="10.6894" height="10.6894" transform="matrix(-1 0 0 1 32.0967 43.5859)" fill="#5A5AB5"/>
<rect width="10.6894" height="10.6894" transform="matrix(-1 0 0 1 21.4082 43.5859)" fill="#A0A0FF"/>
<rect width="10.6894" height="10.6894" transform="matrix(-1 0 0 1 10.7178 54.2812)" fill="#A0A0FF"/>
<rect width="10.6894" height="10.6894" transform="matrix(-1 0 0 1 10.7178 64.9609)" fill="#A0A0FF"/>
<rect x="74.8545" y="150.484" width="10.6894" height="10.6894" transform="rotate(180 74.8545 150.484)" fill="#A0A0FF"/>
<rect x="64.165" y="150.484" width="10.6894" height="10.6894" transform="rotate(180 64.165 150.484)" fill="#A0A0FF"/>
<rect x="64.165" y="139.789" width="10.6894" height="10.6894" transform="rotate(180 64.165 139.789)" fill="#5A5AB5"/>
<rect x="53.4756" y="139.789" width="10.6894" height="10.6894" transform="rotate(180 53.4756 139.789)" fill="#A0A0FF"/>
<rect x="42.7871" y="139.789" width="10.6894" height="10.6894" transform="rotate(180 42.7871 139.789)" fill="#A0A0FF"/>
<rect x="42.7871" y="129.102" width="10.6894" height="10.6894" transform="rotate(180 42.7871 129.102)" fill="#5A5AB5"/>
<rect x="32.0967" y="129.102" width="10.6894" height="10.6894" transform="rotate(180 32.0967 129.102)" fill="#A0A0FF"/>
<rect x="32.0967" y="118.414" width="10.6894" height="10.6894" transform="rotate(180 32.0967 118.414)" fill="#5A5AB5"/>
<rect x="21.4082" y="118.414" width="10.6894" height="10.6894" transform="rotate(180 21.4082 118.414)" fill="#A0A0FF"/>
<rect x="10.7178" y="107.719" width="10.6894" height="10.6894" transform="rotate(180 10.7178 107.719)" fill="#A0A0FF"/>
<rect x="10.7178" y="97.0312" width="10.6894" height="10.6894" transform="rotate(180 10.7178 97.0312)" fill="#A0A0FF"/>
<rect x="160.37" y="139.789" width="10.6894" height="10.6894" fill="#5A5AB5"/>
<rect x="160.37" y="118.414" width="10.6894" height="10.6894" fill="#5A5AB5"/>
<rect x="160.37" y="22.2031" width="10.6894" height="10.6894" fill="#A0A0FF"/>
<rect x="160.37" y="0.828125" width="10.6894" height="10.6894" fill="#A0A0FF"/>
<rect x="160.37" y="150.484" width="10.6894" height="10.6894" fill="#A0A0FF"/>
<rect x="160.37" y="129.102" width="10.6894" height="10.6894" fill="#A0A0FF"/>
<rect x="160.37" y="32.8984" width="10.6894" height="10.6894" fill="#5A5AB5"/>
<rect x="160.37" y="11.5234" width="10.6894" height="10.6894" fill="#5A5AB5"/>
<rect x="64.165" y="75.6562" width="10.6894" height="10.6894" transform="rotate(90 64.165 75.6562)" fill="#A0A0FF"/>
<rect x="42.7871" y="75.6562" width="10.6894" height="10.6894" transform="rotate(90 42.7871 75.6562)" fill="#A0A0FF"/>
<rect x="267.264" y="75.6562" width="10.6894" height="10.6894" transform="rotate(90 267.264 75.6562)" fill="#5A5AB5"/>
<rect x="85.5439" y="75.6562" width="10.6894" height="10.6894" transform="rotate(90 85.5439 75.6562)" fill="#A0A0FF"/>
<rect x="288.642" y="75.6562" width="10.6894" height="10.6894" transform="rotate(90 288.642 75.6562)" fill="#5A5AB5"/>
<rect x="245.885" y="75.6562" width="10.6894" height="10.6894" transform="rotate(90 245.885 75.6562)" fill="#5A5AB5"/>
<rect x="310.021" y="75.6562" width="10.6894" height="10.6894" transform="rotate(90 310.021 75.6562)" fill="#5A5AB5"/>
<rect x="320.711" y="75.6562" width="10.6894" height="10.6894" transform="rotate(90 320.711 75.6562)" fill="#A0A0FF"/>
<rect x="331.399" y="75.6562" width="10.6894" height="10.6894" transform="rotate(90 331.399 75.6562)" fill="#A0A0FF"/>
<rect x="106.923" y="75.6562" width="10.6894" height="10.6894" transform="rotate(90 106.923 75.6562)" fill="#A0A0FF"/>
<rect x="53.4756" y="75.6562" width="10.6894" height="10.6894" transform="rotate(90 53.4756 75.6562)" fill="#5A5AB5"/>
<rect x="32.0967" y="75.6562" width="10.6894" height="10.6894" transform="rotate(90 32.0967 75.6562)" fill="#5A5AB5"/>
<rect x="21.4082" y="75.6562" width="10.6894" height="10.6894" transform="rotate(90 21.4082 75.6562)" fill="#A0A0FF"/>
<rect x="10.7178" y="75.6562" width="10.6894" height="10.6894" transform="rotate(90 10.7178 75.6562)" fill="#A0A0FF"/>
<rect x="96.2324" y="75.6562" width="10.6894" height="10.6894" transform="rotate(90 96.2324 75.6562)" fill="#5A5AB5"/>
<rect x="256.573" y="75.6562" width="10.6894" height="10.6894" transform="rotate(90 256.573 75.6562)" fill="#A0A0FF"/>
<rect x="74.8545" y="75.6562" width="10.6894" height="10.6894" transform="rotate(90 74.8545 75.6562)" fill="#5A5AB5"/>
<rect x="277.953" y="75.6562" width="10.6894" height="10.6894" transform="rotate(90 277.953 75.6562)" fill="#A0A0FF"/>
<rect x="235.196" y="75.6562" width="10.6894" height="10.6894" transform="rotate(90 235.196 75.6562)" fill="#A0A0FF"/>
<rect x="299.332" y="75.6562" width="10.6894" height="10.6894" transform="rotate(90 299.332 75.6562)" fill="#A0A0FF"/>
<rect x="106.923" y="129.102" width="10.6894" height="10.6894" fill="#5A5AB5"/>
<rect x="213.816" y="129.102" width="10.6894" height="10.6894" fill="#5A5AB5"/>
<rect width="10.6894" height="10.6894" transform="matrix(1 0 0 -1 106.923 32.8984)" fill="#5A5AB5"/>
<rect width="10.6894" height="10.6894" transform="matrix(1 0 0 -1 213.816 32.8984)" fill="#5A5AB5"/>
<path d="M173.772 101.737V60.2734H211.09V67.9738L206.943 72.1202H186.804V77.4512H203.982V89.298H186.804V101.737H173.772Z" fill="#C2C2FF"/>
<path d="M124.615 101.737V60.2734H137.647V75.0819H155.417V60.2734H168.448V101.737H155.417V86.9286H137.647V101.737H124.615Z" fill="#C2C2FF"/>
</svg>
