<svg width="800" height="316" viewBox="0 0 800 316" fill="none" xmlns="http://www.w3.org/2000/svg">
<path d="M781.046 313.762C777.864 313.762 774.915 312.966 772.201 311.375C769.486 309.784 767.287 307.631 765.602 304.916C764.011 302.202 763.215 299.207 763.215 295.931V261.111H754.65V241.454H764.479L772.903 222.5H785.96V241.454H799.018V255.495L793.963 261.111H785.96V288.91C785.96 290.034 786.241 290.876 786.803 291.438C787.364 291.999 788.16 292.28 789.189 292.28H800V313.762H781.046Z" fill="#F2F4F7"/>
<path d="M696.31 313.76V294.104H722.986C724.016 294.104 724.765 293.87 725.233 293.402C725.794 292.84 726.075 292.138 726.075 291.296V290.454C726.075 289.611 725.794 288.956 725.233 288.488C724.765 288.02 723.922 287.599 722.705 287.224L710.209 283.434C707.121 282.404 704.547 281.234 702.487 279.923C700.522 278.519 698.977 276.788 697.854 274.729C696.824 272.576 696.31 270.048 696.31 267.147V259.284C696.31 256.008 697.105 253.013 698.696 250.298C700.381 247.584 702.581 245.431 705.295 243.84C708.01 242.249 710.958 241.453 714.141 241.453H746.855V255.493L741.8 261.109H722.565C721.535 261.109 720.74 261.344 720.178 261.812C719.71 262.186 719.476 262.794 719.476 263.637V264.339C719.476 265.088 719.757 265.743 720.318 266.304C720.88 266.866 721.722 267.287 722.846 267.568L735.482 271.499C738.571 272.435 741.098 273.605 743.064 275.009C745.123 276.32 746.667 278.005 747.697 280.064C748.727 282.123 749.241 284.604 749.241 287.505V295.929C749.241 299.205 748.446 302.201 746.855 304.915C745.263 307.63 743.11 309.782 740.396 311.374C737.682 312.965 734.686 313.76 731.41 313.76H696.31Z" fill="#F2F4F7"/>
<path d="M646.157 313.766C642.881 313.766 639.886 312.97 637.172 311.379C634.457 309.788 632.304 307.635 630.713 304.921C629.122 302.206 628.326 299.211 628.326 295.935V257.886C628.326 254.61 629.122 251.615 630.713 248.9C632.304 246.186 634.457 244.033 637.172 242.442C639.886 240.85 642.881 240.055 646.157 240.055H668.341C671.523 240.055 674.472 240.85 677.186 242.442C679.901 244.033 682.054 246.186 683.645 248.9C685.33 251.615 686.172 254.61 686.172 257.886V285.686H651.071V291.723C651.071 292.846 651.352 293.688 651.914 294.25C652.475 294.812 653.271 295.093 654.301 295.093H682.802V313.766H646.157ZM650.51 270.522H663.848V261.817C663.848 260.694 663.567 259.898 663.006 259.43C662.538 258.869 661.742 258.588 660.619 258.588H653.879C652.756 258.588 651.914 258.869 651.352 259.43C650.791 259.898 650.51 260.694 650.51 261.817V270.522Z" fill="#F2F4F7"/>
<path d="M581.741 232.612C581.741 229.336 582.537 226.341 584.128 223.627C585.719 220.912 587.872 218.759 590.587 217.168C593.301 215.577 596.296 214.781 599.572 214.781H625.547V234.438H607.716C606.686 234.438 605.89 234.718 605.329 235.28C604.767 235.748 604.486 236.544 604.486 237.667V248.478H619.931V262.237L617.263 268.134H604.486V313.765H581.741V232.612Z" fill="#F2F4F7"/>
<path d="M529.348 313.766V241.459H543.669L546.898 249.181H547.6C548.723 246.841 550.502 244.735 552.935 242.863C555.369 240.991 558.177 240.055 561.359 240.055H572.592V262.94H556.024C555.088 262.94 554.339 263.128 553.778 263.502C553.216 263.783 552.795 264.204 552.514 264.766C552.233 265.327 552.093 266.076 552.093 267.012V313.766H529.348Z" fill="#F2F4F7"/>
<path d="M477.51 313.766C474.234 313.766 471.239 312.97 468.524 311.379C465.81 309.788 463.657 307.635 462.066 304.921C460.474 302.206 459.679 299.211 459.679 295.935V257.886C459.679 254.61 460.474 251.615 462.066 248.9C463.657 246.186 465.81 244.033 468.524 242.442C471.239 240.85 474.234 240.055 477.51 240.055H499.693C502.876 240.055 505.824 240.85 508.539 242.442C511.253 244.033 513.406 246.186 514.997 248.9C516.682 251.615 517.525 254.61 517.525 257.886V285.686H482.424V291.723C482.424 292.846 482.705 293.688 483.266 294.25C483.828 294.812 484.624 295.093 485.653 295.093H514.155V313.766H477.51ZM481.862 270.522H495.201V261.817C495.201 260.694 494.92 259.898 494.358 259.43C493.89 258.869 493.095 258.588 491.971 258.588H485.232C484.109 258.588 483.266 258.869 482.705 259.43C482.143 259.898 481.862 260.694 481.862 261.817V270.522Z" fill="#F2F4F7"/>
<path d="M389.92 313.76V216.18H412.665V248.894H413.367C414.397 246.647 416.082 244.635 418.422 242.856C420.855 240.984 423.663 240.048 426.846 240.048H431.058C434.334 240.048 437.282 240.797 439.903 242.295C442.524 243.792 444.583 245.898 446.081 248.613C447.672 251.234 448.468 254.135 448.468 257.318V295.928C448.468 299.204 447.625 302.2 445.941 304.914C444.349 307.629 442.197 309.781 439.482 311.373C436.768 312.964 433.819 313.76 430.637 313.76H389.92ZM422.915 292.699C424.038 292.699 424.833 292.418 425.301 291.857C425.863 291.295 426.144 290.499 426.144 289.47V264.338C426.144 263.215 425.863 262.419 425.301 261.951C424.833 261.389 424.038 261.109 422.915 261.109H417.579C416.269 261.109 415.239 261.296 414.49 261.67C413.742 262.045 413.133 262.653 412.665 263.495C412.291 264.244 412.104 265.227 412.104 266.444V292.699H422.915Z" fill="#F2F4F7"/>
<path d="M336.558 315.17C333.282 315.17 330.286 314.374 327.572 312.783C324.857 311.192 322.705 309.039 321.113 306.325C319.522 303.61 318.727 300.615 318.727 297.339V257.886C318.727 254.61 319.522 251.615 321.113 248.9C322.705 246.186 324.857 244.033 327.572 242.442C330.286 240.85 333.282 240.055 336.558 240.055H359.443C362.626 240.055 365.574 240.85 368.289 242.442C371.003 244.033 373.156 246.186 374.747 248.9C376.432 251.615 377.274 254.61 377.274 257.886V297.339C377.274 300.615 376.432 303.61 374.747 306.325C373.156 309.039 371.003 311.192 368.289 312.783C365.574 314.374 362.626 315.17 359.443 315.17H336.558ZM351.721 294.11C352.844 294.11 353.64 293.829 354.108 293.267C354.67 292.706 354.95 291.91 354.95 290.88V264.344C354.95 263.221 354.67 262.426 354.108 261.958C353.64 261.396 352.844 261.115 351.721 261.115H344.28C343.157 261.115 342.314 261.396 341.753 261.958C341.191 262.426 340.91 263.221 340.91 264.344V290.88C340.91 291.91 341.191 292.706 341.753 293.267C342.314 293.829 343.157 294.11 344.28 294.11H351.721Z" fill="#F2F4F7"/>
<path d="M291.282 313.762C288.1 313.762 285.151 312.966 282.437 311.375C279.723 309.784 277.523 307.631 275.838 304.916C274.247 302.202 273.451 299.207 273.451 295.931V261.111H264.887V241.454H274.715L283.139 222.5H296.197V241.454H309.254V255.495L304.199 261.111H296.197V288.91C296.197 290.034 296.477 290.876 297.039 291.438C297.601 291.999 298.396 292.28 299.426 292.28H310.237V313.762H291.282Z" fill="#F2F4F7"/>
<path d="M200.981 313.76V216.18H223.727V267.146H229.062L238.609 241.452H259.249V251.982L248.297 276.834L260.231 303.229V313.76H238.89L229.062 287.785H223.727V313.76H200.981Z" fill="#F2F4F7"/>
<path d="M158.449 313.76C155.173 313.76 152.178 312.965 149.464 311.374C146.749 309.782 144.596 307.63 143.005 304.915C141.414 302.201 140.618 299.205 140.618 295.929V259.284C140.618 256.008 141.414 253.013 143.005 250.298C144.596 247.584 146.749 245.431 149.464 243.84C152.178 242.249 155.173 241.453 158.449 241.453H189.759V257.88L185.126 262.935H166.593C165.563 262.935 164.767 263.216 164.206 263.777C163.644 264.339 163.363 265.181 163.363 266.304V288.909C163.363 290.032 163.644 290.875 164.206 291.436C164.767 291.998 165.563 292.279 166.593 292.279H189.759V313.76H158.449Z" fill="#F2F4F7"/>
<path d="M88.7478 315.165C85.4718 315.165 82.5233 314.416 79.9025 312.918C77.2816 311.42 75.1756 309.361 73.5843 306.74C72.0867 304.026 71.3379 301.077 71.3379 297.895V286.803C71.3379 283.621 72.0867 280.719 73.5843 278.098C75.1756 275.384 77.2816 273.278 79.9025 271.78C82.5233 270.282 85.4718 269.534 88.7478 269.534H106.017V263.216C106.017 262.092 105.737 261.297 105.175 260.829C104.707 260.267 103.911 259.986 102.788 259.986H77.656V241.453H111.353C114.629 241.453 117.577 242.202 120.198 243.7C122.819 245.197 124.878 247.303 126.376 250.018C127.967 252.639 128.763 255.54 128.763 258.723V313.76H114.442L111.212 306.038H110.51C109.387 308.378 107.562 310.484 105.035 312.356C102.601 314.228 99.7928 315.165 96.6104 315.165H88.7478ZM101.103 296.912C102.226 296.912 103.162 296.725 103.911 296.351C104.754 295.883 105.362 295.274 105.737 294.525C106.205 293.683 106.439 292.7 106.439 291.577V284.697H96.47C95.3467 284.697 94.5043 284.978 93.9427 285.54C93.3811 286.101 93.1003 286.944 93.1003 288.067V293.683C93.1003 294.713 93.3811 295.508 93.9427 296.07C94.5043 296.631 95.3467 296.912 96.47 296.912H101.103Z" fill="#F2F4F7"/>
<path d="M0.000976562 313.766V215.484H23.4482V253.393H35.8036V215.484H59.2509V313.766H35.8036V275.156H23.4482V313.766H0.000976562Z" fill="#F2F4F7"/>
<rect x="405.412" y="152.344" width="10.8221" height="10.8221" fill="#5A5AB5"/>
<rect x="416.234" y="152.344" width="10.8221" height="10.8221" fill="#5A5AB5"/>
<rect x="416.234" y="141.516" width="10.8221" height="10.8221" fill="#A0A0FF"/>
<rect x="427.057" y="130.695" width="10.8221" height="10.8221" fill="#5A5AB5"/>
<rect x="427.057" y="119.867" width="10.8221" height="10.8221" fill="#A0A0FF"/>
<rect width="10.8221" height="10.8221" transform="matrix(1 0 0 -1 405.412 11.6562)" fill="#5A5AB5"/>
<rect width="10.8221" height="10.8221" transform="matrix(1 0 0 -1 416.234 11.6562)" fill="#5A5AB5"/>
<rect width="10.8221" height="10.8221" transform="matrix(1 0 0 -1 416.234 22.4688)" fill="#A0A0FF"/>
<rect width="10.8221" height="10.8221" transform="matrix(1 0 0 -1 427.057 33.2969)" fill="#5A5AB5"/>
<rect width="10.8221" height="10.8221" transform="matrix(1 0 0 -1 427.057 44.1172)" fill="#A0A0FF"/>
<rect width="10.8221" height="10.8221" transform="matrix(-1 0 0 1 394.591 152.344)" fill="#5A5AB5"/>
<rect width="10.8221" height="10.8221" transform="matrix(-1 0 0 1 383.768 152.344)" fill="#5A5AB5"/>
<rect width="10.8221" height="10.8221" transform="matrix(-1 0 0 1 383.768 141.516)" fill="#A0A0FF"/>
<rect width="10.8221" height="10.8221" transform="matrix(-1 0 0 1 372.946 130.695)" fill="#5A5AB5"/>
<rect width="10.8221" height="10.8221" transform="matrix(-1 0 0 1 372.946 119.867)" fill="#A0A0FF"/>
<rect x="394.591" y="11.6562" width="10.8221" height="10.8221" transform="rotate(180 394.591 11.6562)" fill="#5A5AB5"/>
<rect x="383.768" y="11.6562" width="10.8221" height="10.8221" transform="rotate(180 383.768 11.6562)" fill="#5A5AB5"/>
<rect x="383.768" y="22.4688" width="10.8221" height="10.8221" transform="rotate(180 383.768 22.4688)" fill="#A0A0FF"/>
<rect x="372.946" y="33.2969" width="10.8221" height="10.8221" transform="rotate(180 372.946 33.2969)" fill="#5A5AB5"/>
<rect x="372.946" y="44.1172" width="10.8221" height="10.8221" transform="rotate(180 372.946 44.1172)" fill="#A0A0FF"/>
<rect x="427.057" y="0.828125" width="10.8221" height="10.8221" fill="#A0A0FF"/>
<rect x="437.878" y="11.6562" width="10.8221" height="10.8221" fill="#5A5AB5"/>
<rect x="448.701" y="11.6562" width="10.8221" height="10.8221" fill="#A0A0FF"/>
<rect x="459.522" y="22.4688" width="10.8221" height="10.8221" fill="#A0A0FF"/>
<rect x="470.345" y="33.2969" width="10.8221" height="10.8221" fill="#A0A0FF"/>
<rect x="481.167" y="44.1172" width="10.8221" height="10.8221" fill="#A0A0FF"/>
<rect x="481.167" y="54.9375" width="10.8221" height="10.8221" fill="#A0A0FF"/>
<rect x="491.988" y="65.7578" width="10.8221" height="10.8221" fill="#A0A0FF"/>
<rect width="10.8221" height="10.8221" transform="matrix(1 0 0 -1 427.057 163.156)" fill="#A0A0FF"/>
<rect width="10.8221" height="10.8221" transform="matrix(1 0 0 -1 437.878 152.344)" fill="#5A5AB5"/>
<rect width="10.8221" height="10.8221" transform="matrix(1 0 0 -1 448.701 152.344)" fill="#A0A0FF"/>
<rect width="10.8221" height="10.8221" transform="matrix(1 0 0 -1 459.522 141.516)" fill="#A0A0FF"/>
<rect width="10.8221" height="10.8221" transform="matrix(1 0 0 -1 470.345 130.695)" fill="#A0A0FF"/>
<rect width="10.8221" height="10.8221" transform="matrix(1 0 0 -1 481.167 119.867)" fill="#A0A0FF"/>
<rect width="10.8221" height="10.8221" transform="matrix(1 0 0 -1 481.167 109.047)" fill="#A0A0FF"/>
<rect width="10.8221" height="10.8221" transform="matrix(1 0 0 -1 491.988 98.2266)" fill="#A0A0FF"/>
<rect width="10.8221" height="10.8221" transform="matrix(-1 0 0 1 372.946 0.828125)" fill="#A0A0FF"/>
<rect width="10.8221" height="10.8221" transform="matrix(-1 0 0 1 362.124 11.6562)" fill="#5A5AB5"/>
<rect width="10.8221" height="10.8221" transform="matrix(-1 0 0 1 351.302 11.6562)" fill="#A0A0FF"/>
<rect width="10.8221" height="10.8221" transform="matrix(-1 0 0 1 340.48 22.4688)" fill="#A0A0FF"/>
<rect width="10.8221" height="10.8221" transform="matrix(-1 0 0 1 329.657 33.2969)" fill="#A0A0FF"/>
<rect width="10.8221" height="10.8221" transform="matrix(-1 0 0 1 318.836 44.1172)" fill="#A0A0FF"/>
<rect width="10.8221" height="10.8221" transform="matrix(-1 0 0 1 318.836 54.9375)" fill="#A0A0FF"/>
<rect width="10.8221" height="10.8221" transform="matrix(-1 0 0 1 308.014 65.7578)" fill="#A0A0FF"/>
<rect x="372.946" y="163.156" width="10.8221" height="10.8221" transform="rotate(180 372.946 163.156)" fill="#A0A0FF"/>
<rect x="362.124" y="152.344" width="10.8221" height="10.8221" transform="rotate(180 362.124 152.344)" fill="#5A5AB5"/>
<rect x="351.302" y="152.344" width="10.8221" height="10.8221" transform="rotate(180 351.302 152.344)" fill="#A0A0FF"/>
<rect x="340.48" y="141.516" width="10.8221" height="10.8221" transform="rotate(180 340.48 141.516)" fill="#A0A0FF"/>
<rect x="329.657" y="130.695" width="10.8221" height="10.8221" transform="rotate(180 329.657 130.695)" fill="#A0A0FF"/>
<rect x="318.836" y="119.867" width="10.8221" height="10.8221" transform="rotate(180 318.836 119.867)" fill="#A0A0FF"/>
<rect x="318.836" y="109.047" width="10.8221" height="10.8221" transform="rotate(180 318.836 109.047)" fill="#A0A0FF"/>
<rect x="308.014" y="98.2266" width="10.8221" height="10.8221" transform="rotate(180 308.014 98.2266)" fill="#A0A0FF"/>
<rect x="448.701" y="0.828125" width="10.8221" height="10.8221" fill="#5A5AB5"/>
<rect x="459.522" y="11.6562" width="10.8221" height="10.8221" fill="#5A5AB5"/>
<rect x="459.522" y="0.828125" width="10.8221" height="10.8221" fill="#A0A0FF"/>
<rect x="470.345" y="11.6562" width="10.8221" height="10.8221" fill="#A0A0FF"/>
<rect x="481.167" y="22.4688" width="10.8221" height="10.8221" fill="#A0A0FF"/>
<rect x="481.167" y="11.6562" width="10.8221" height="10.8221" fill="#5A5AB5"/>
<rect x="491.988" y="22.4688" width="10.8221" height="10.8221" fill="#5A5AB5"/>
<rect x="502.812" y="33.2969" width="10.8221" height="10.8221" fill="#A0A0FF"/>
<rect x="513.633" y="44.1172" width="10.8221" height="10.8221" fill="#A0A0FF"/>
<rect x="524.454" y="54.9375" width="10.8221" height="10.8221" fill="#A0A0FF"/>
<rect x="524.454" y="65.7578" width="10.8221" height="10.8221" fill="#5A5AB5"/>
<rect x="437.878" y="0.828125" width="10.8221" height="10.8221" fill="#5A5AB5"/>
<rect width="10.8221" height="10.8221" transform="matrix(1 0 0 -1 448.701 163.156)" fill="#5A5AB5"/>
<rect width="10.8221" height="10.8221" transform="matrix(1 0 0 -1 437.878 163.156)" fill="#5A5AB5"/>
<rect width="10.8221" height="10.8221" transform="matrix(1 0 0 -1 459.522 152.344)" fill="#5A5AB5"/>
<rect width="10.8221" height="10.8221" transform="matrix(1 0 0 -1 459.522 163.156)" fill="#A0A0FF"/>
<rect width="10.8221" height="10.8221" transform="matrix(1 0 0 -1 470.345 152.344)" fill="#A0A0FF"/>
<rect width="10.8221" height="10.8221" transform="matrix(1 0 0 -1 481.167 141.516)" fill="#A0A0FF"/>
<rect width="10.8221" height="10.8221" transform="matrix(1 0 0 -1 481.167 152.344)" fill="#5A5AB5"/>
<rect width="10.8221" height="10.8221" transform="matrix(1 0 0 -1 491.988 141.516)" fill="#5A5AB5"/>
<rect width="10.8221" height="10.8221" transform="matrix(1 0 0 -1 502.812 130.695)" fill="#A0A0FF"/>
<rect width="10.8221" height="10.8221" transform="matrix(1 0 0 -1 513.633 119.867)" fill="#A0A0FF"/>
<rect width="10.8221" height="10.8221" transform="matrix(1 0 0 -1 524.454 109.047)" fill="#A0A0FF"/>
<rect width="10.8221" height="10.8221" transform="matrix(1 0 0 -1 524.454 98.2266)" fill="#5A5AB5"/>
<rect width="10.8221" height="10.8221" transform="matrix(-1 0 0 1 351.302 0.828125)" fill="#5A5AB5"/>
<rect width="10.8221" height="10.8221" transform="matrix(-1 0 0 1 340.48 11.6562)" fill="#5A5AB5"/>
<rect width="10.8221" height="10.8221" transform="matrix(-1 0 0 1 340.48 0.828125)" fill="#A0A0FF"/>
<rect width="10.8221" height="10.8221" transform="matrix(-1 0 0 1 329.657 11.6562)" fill="#A0A0FF"/>
<rect width="10.8221" height="10.8221" transform="matrix(-1 0 0 1 318.836 22.4688)" fill="#A0A0FF"/>
<rect width="10.8221" height="10.8221" transform="matrix(-1 0 0 1 318.836 11.6562)" fill="#5A5AB5"/>
<rect width="10.8221" height="10.8221" transform="matrix(-1 0 0 1 308.014 22.4688)" fill="#5A5AB5"/>
<rect width="10.8221" height="10.8221" transform="matrix(-1 0 0 1 297.191 33.2969)" fill="#A0A0FF"/>
<rect width="10.8221" height="10.8221" transform="matrix(-1 0 0 1 286.37 44.1172)" fill="#A0A0FF"/>
<rect width="10.8221" height="10.8221" transform="matrix(-1 0 0 1 275.548 54.9375)" fill="#A0A0FF"/>
<rect width="10.8221" height="10.8221" transform="matrix(-1 0 0 1 275.548 65.7578)" fill="#5A5AB5"/>
<rect width="10.8221" height="10.8221" transform="matrix(-1 0 0 1 362.124 0.828125)" fill="#5A5AB5"/>
<rect x="351.302" y="163.156" width="10.8221" height="10.8221" transform="rotate(180 351.302 163.156)" fill="#5A5AB5"/>
<rect x="362.124" y="163.156" width="10.8221" height="10.8221" transform="rotate(180 362.124 163.156)" fill="#5A5AB5"/>
<rect x="340.48" y="152.344" width="10.8221" height="10.8221" transform="rotate(180 340.48 152.344)" fill="#5A5AB5"/>
<rect x="340.48" y="163.156" width="10.8221" height="10.8221" transform="rotate(180 340.48 163.156)" fill="#A0A0FF"/>
<rect x="329.657" y="152.344" width="10.8221" height="10.8221" transform="rotate(180 329.657 152.344)" fill="#A0A0FF"/>
<rect x="318.836" y="141.516" width="10.8221" height="10.8221" transform="rotate(180 318.836 141.516)" fill="#A0A0FF"/>
<rect x="318.836" y="152.344" width="10.8221" height="10.8221" transform="rotate(180 318.836 152.344)" fill="#5A5AB5"/>
<rect x="308.014" y="141.516" width="10.8221" height="10.8221" transform="rotate(180 308.014 141.516)" fill="#5A5AB5"/>
<rect x="297.191" y="130.695" width="10.8221" height="10.8221" transform="rotate(180 297.191 130.695)" fill="#A0A0FF"/>
<rect x="286.37" y="119.867" width="10.8221" height="10.8221" transform="rotate(180 286.37 119.867)" fill="#A0A0FF"/>
<rect x="275.548" y="109.047" width="10.8221" height="10.8221" transform="rotate(180 275.548 109.047)" fill="#A0A0FF"/>
<rect x="275.548" y="98.2266" width="10.8221" height="10.8221" transform="rotate(180 275.548 98.2266)" fill="#5A5AB5"/>
<rect x="491.988" y="11.6562" width="10.8221" height="10.8221" fill="#A0A0FF"/>
<rect x="502.812" y="11.6562" width="10.8221" height="10.8221" fill="#A0A0FF"/>
<rect x="502.812" y="22.4688" width="10.8221" height="10.8221" fill="#5A5AB5"/>
<rect x="513.633" y="22.4688" width="10.8221" height="10.8221" fill="#A0A0FF"/>
<rect x="524.454" y="22.4688" width="10.8221" height="10.8221" fill="#A0A0FF"/>
<rect x="524.454" y="33.2969" width="10.8221" height="10.8221" fill="#5A5AB5"/>
<rect x="535.277" y="33.2969" width="10.8221" height="10.8221" fill="#A0A0FF"/>
<rect x="535.277" y="44.1172" width="10.8221" height="10.8221" fill="#5A5AB5"/>
<rect x="546.099" y="44.1172" width="10.8221" height="10.8221" fill="#A0A0FF"/>
<rect x="556.922" y="54.9375" width="10.8221" height="10.8221" fill="#A0A0FF"/>
<rect x="556.922" y="65.7578" width="10.8221" height="10.8221" fill="#A0A0FF"/>
<rect width="10.8221" height="10.8221" transform="matrix(1 0 0 -1 491.988 152.344)" fill="#A0A0FF"/>
<rect width="10.8221" height="10.8221" transform="matrix(1 0 0 -1 502.812 152.344)" fill="#A0A0FF"/>
<rect width="10.8221" height="10.8221" transform="matrix(1 0 0 -1 502.812 141.516)" fill="#5A5AB5"/>
<rect width="10.8221" height="10.8221" transform="matrix(1 0 0 -1 513.633 141.516)" fill="#A0A0FF"/>
<rect width="10.8221" height="10.8221" transform="matrix(1 0 0 -1 524.454 141.516)" fill="#A0A0FF"/>
<rect width="10.8221" height="10.8221" transform="matrix(1 0 0 -1 524.454 130.695)" fill="#5A5AB5"/>
<rect width="10.8221" height="10.8221" transform="matrix(1 0 0 -1 535.277 130.695)" fill="#A0A0FF"/>
<rect width="10.8221" height="10.8221" transform="matrix(1 0 0 -1 535.277 119.867)" fill="#5A5AB5"/>
<rect width="10.8221" height="10.8221" transform="matrix(1 0 0 -1 546.099 119.867)" fill="#A0A0FF"/>
<rect width="10.8221" height="10.8221" transform="matrix(1 0 0 -1 556.922 109.047)" fill="#A0A0FF"/>
<rect width="10.8221" height="10.8221" transform="matrix(1 0 0 -1 556.922 98.2266)" fill="#A0A0FF"/>
<rect width="10.8221" height="10.8221" transform="matrix(-1 0 0 1 308.014 11.6562)" fill="#A0A0FF"/>
<rect width="10.8221" height="10.8221" transform="matrix(-1 0 0 1 297.191 11.6562)" fill="#A0A0FF"/>
<rect width="10.8221" height="10.8221" transform="matrix(-1 0 0 1 297.191 22.4688)" fill="#5A5AB5"/>
<rect width="10.8221" height="10.8221" transform="matrix(-1 0 0 1 286.37 22.4688)" fill="#A0A0FF"/>
<rect width="10.8221" height="10.8221" transform="matrix(-1 0 0 1 275.548 22.4688)" fill="#A0A0FF"/>
<rect width="10.8221" height="10.8221" transform="matrix(-1 0 0 1 275.548 33.2969)" fill="#5A5AB5"/>
<rect width="10.8221" height="10.8221" transform="matrix(-1 0 0 1 264.726 33.2969)" fill="#A0A0FF"/>
<rect width="10.8221" height="10.8221" transform="matrix(-1 0 0 1 264.726 44.1172)" fill="#5A5AB5"/>
<rect width="10.8221" height="10.8221" transform="matrix(-1 0 0 1 253.903 44.1172)" fill="#A0A0FF"/>
<rect width="10.8221" height="10.8221" transform="matrix(-1 0 0 1 243.081 54.9375)" fill="#A0A0FF"/>
<rect width="10.8221" height="10.8221" transform="matrix(-1 0 0 1 243.081 65.7578)" fill="#A0A0FF"/>
<rect x="308.014" y="152.344" width="10.8221" height="10.8221" transform="rotate(180 308.014 152.344)" fill="#A0A0FF"/>
<rect x="297.191" y="152.344" width="10.8221" height="10.8221" transform="rotate(180 297.191 152.344)" fill="#A0A0FF"/>
<rect x="297.191" y="141.516" width="10.8221" height="10.8221" transform="rotate(180 297.191 141.516)" fill="#5A5AB5"/>
<rect x="286.37" y="141.516" width="10.8221" height="10.8221" transform="rotate(180 286.37 141.516)" fill="#A0A0FF"/>
<rect x="275.548" y="141.516" width="10.8221" height="10.8221" transform="rotate(180 275.548 141.516)" fill="#A0A0FF"/>
<rect x="275.548" y="130.695" width="10.8221" height="10.8221" transform="rotate(180 275.548 130.695)" fill="#5A5AB5"/>
<rect x="264.726" y="130.695" width="10.8221" height="10.8221" transform="rotate(180 264.726 130.695)" fill="#A0A0FF"/>
<rect x="264.726" y="119.867" width="10.8221" height="10.8221" transform="rotate(180 264.726 119.867)" fill="#5A5AB5"/>
<rect x="253.903" y="119.867" width="10.8221" height="10.8221" transform="rotate(180 253.903 119.867)" fill="#A0A0FF"/>
<rect x="243.081" y="109.047" width="10.8221" height="10.8221" transform="rotate(180 243.081 109.047)" fill="#A0A0FF"/>
<rect x="243.081" y="98.2266" width="10.8221" height="10.8221" transform="rotate(180 243.081 98.2266)" fill="#A0A0FF"/>
<rect x="394.591" y="141.516" width="10.8221" height="10.8221" fill="#5A5AB5"/>
<rect x="394.591" y="119.867" width="10.8221" height="10.8221" fill="#5A5AB5"/>
<rect x="394.591" y="22.4688" width="10.8221" height="10.8221" fill="#A0A0FF"/>
<rect x="394.591" y="0.828125" width="10.8221" height="10.8221" fill="#A0A0FF"/>
<rect x="394.591" y="152.344" width="10.8221" height="10.8221" fill="#A0A0FF"/>
<rect x="394.591" y="130.695" width="10.8221" height="10.8221" fill="#A0A0FF"/>
<rect x="394.591" y="33.2969" width="10.8221" height="10.8221" fill="#5A5AB5"/>
<rect x="394.591" y="11.6562" width="10.8221" height="10.8221" fill="#5A5AB5"/>
<rect x="297.191" y="76.5859" width="10.8221" height="10.8221" transform="rotate(90 297.191 76.5859)" fill="#A0A0FF"/>
<rect x="275.548" y="76.5859" width="10.8221" height="10.8221" transform="rotate(90 275.548 76.5859)" fill="#A0A0FF"/>
<rect x="502.812" y="76.5859" width="10.8221" height="10.8221" transform="rotate(90 502.812 76.5859)" fill="#5A5AB5"/>
<rect x="318.836" y="76.5859" width="10.8221" height="10.8221" transform="rotate(90 318.836 76.5859)" fill="#A0A0FF"/>
<rect x="524.454" y="76.5859" width="10.8221" height="10.8221" transform="rotate(90 524.454 76.5859)" fill="#5A5AB5"/>
<rect x="481.167" y="76.5859" width="10.8221" height="10.8221" transform="rotate(90 481.167 76.5859)" fill="#5A5AB5"/>
<rect x="546.099" y="76.5859" width="10.8221" height="10.8221" transform="rotate(90 546.099 76.5859)" fill="#5A5AB5"/>
<rect x="556.922" y="76.5859" width="10.8221" height="10.8221" transform="rotate(90 556.922 76.5859)" fill="#A0A0FF"/>
<rect x="567.743" y="76.5859" width="10.8221" height="10.8221" transform="rotate(90 567.743 76.5859)" fill="#A0A0FF"/>
<rect x="340.48" y="76.5859" width="10.8221" height="10.8221" transform="rotate(90 340.48 76.5859)" fill="#A0A0FF"/>
<rect x="286.37" y="76.5859" width="10.8221" height="10.8221" transform="rotate(90 286.37 76.5859)" fill="#5A5AB5"/>
<rect x="264.726" y="76.5859" width="10.8221" height="10.8221" transform="rotate(90 264.726 76.5859)" fill="#5A5AB5"/>
<rect x="253.903" y="76.5859" width="10.8221" height="10.8221" transform="rotate(90 253.903 76.5859)" fill="#A0A0FF"/>
<rect x="243.081" y="76.5859" width="10.8221" height="10.8221" transform="rotate(90 243.081 76.5859)" fill="#A0A0FF"/>
<rect x="329.657" y="76.5859" width="10.8221" height="10.8221" transform="rotate(90 329.657 76.5859)" fill="#5A5AB5"/>
<rect x="491.988" y="76.5859" width="10.8221" height="10.8221" transform="rotate(90 491.988 76.5859)" fill="#A0A0FF"/>
<rect x="308.014" y="76.5859" width="10.8221" height="10.8221" transform="rotate(90 308.014 76.5859)" fill="#5A5AB5"/>
<rect x="513.633" y="76.5859" width="10.8221" height="10.8221" transform="rotate(90 513.633 76.5859)" fill="#A0A0FF"/>
<rect x="470.345" y="76.5859" width="10.8221" height="10.8221" transform="rotate(90 470.345 76.5859)" fill="#A0A0FF"/>
<rect x="535.277" y="76.5859" width="10.8221" height="10.8221" transform="rotate(90 535.277 76.5859)" fill="#A0A0FF"/>
<rect x="340.48" y="130.695" width="10.8221" height="10.8221" fill="#5A5AB5"/>
<rect x="448.701" y="130.695" width="10.8221" height="10.8221" fill="#5A5AB5"/>
<rect width="10.8221" height="10.8221" transform="matrix(1 0 0 -1 340.48 33.2969)" fill="#5A5AB5"/>
<rect width="10.8221" height="10.8221" transform="matrix(1 0 0 -1 448.701 33.2969)" fill="#5A5AB5"/>
<path d="M408.158 102.986V61.0078H445.939V68.8038L441.741 73.0016H421.351V78.3988H438.742V90.3926H421.351V102.986H408.158Z" fill="#C2C2FF"/>
<path d="M358.392 102.986V61.0078H371.585V76H389.575V61.0078H402.769V102.986H389.575V87.9938H371.585V102.986H358.392Z" fill="#C2C2FF"/>
</svg>
